# xmcd
#
# Track frame offsets:
# 150
# 21821
# 39852
# 56972
# 74282
# 87625
# 106159
# 122403
# 138773
# 153185
# 173410
# 192532
# 210179
# 228798
# 246018
#
# Disc length: 3504 seconds
#
#
# Revision: 2
# Processed by: cddbd v1.5.1PL0 Copyright (c) Steve Scherf et al.
# Submitted via: FreeRIP 2.931 
#
DISCID=b70dae0f
DTITLE=Bruno and Marrone - Inevitável(by dimas som)
DYEAR=2003
DGENRE=Country
TTITLE0=Será-Bruno and Marrone
TTITLE1=Vai Dar Namoro-Bruno and Marrone
TTITLE2=Deixa-Bruno and Marrone
TTITLE3=É Você Que Eu Amo-Bruno and Marrone
TTITLE4=Pra Lá Que Eu Vou-Bruno and Marrone
TTITLE5=Sonhos Perdidos-Bruno and Marrone
TTITLE6=Trânsito Parado-Bruno and Marrone
TTITLE7=Doce Desejo-Bruno and Marrone
TTITLE8=Apaziguar-Bruno and Marrone
TTITLE9=Se Não Tivesse Ido-Bruno and Marrone
TTITLE10=Você Não Me Ensinou A Te Esquecer-Bruno and Marrone
TTITLE11=Inevitável-Bruno and Marrone
TTITLE12=Coração de Pedra-Bruno and Marrone
TTITLE13=Foi Engano-Bruno and Marrone
TTITLE14=Ligação Urbana (Ao Vivo)-Bruno and Marrone
EXTD=YEAR: 2003 ID3G: 2
EXTT0=
EXTT1=
EXTT2=
EXTT3=
EXTT4=
EXTT5=
EXTT6=
EXTT7=
EXTT8=
EXTT9=
EXTT10=
EXTT11=
EXTT12=
EXTT13=
EXTT14=
PLAYORDER=
